<mxfile host="app.diagrams.net" modified="2024-06-26T22:33:24.842Z" agent="Mozilla/5.0 (Macintosh; Intel Mac OS X 10_15_7) AppleWebKit/537.36 (KHTML, like Gecko) Chrome/126.0.0.0 Safari/537.36" version="24.6.3" etag="SZn3BdmV5-YZLg5OZqke" type="github">
  <diagram name="第 1 页" id="Cy6AP3uPCmooAFu8l_5I">
    <mxGraphModel>
      <root>
        <mxCell id="0" />
        <mxCell id="1" parent="0" />
      </root>
    </mxGraphModel>
  </diagram>
</mxfile>
